<mxfile host="65bd71144e">
    <diagram name="Monaco Racing Architecture" id="architecture">
        <mxGraphModel dx="1730" dy="1022" grid="1" gridSize="10" guides="1" tooltips="1" connect="1" arrows="1" fold="1" page="1" pageScale="1" pageWidth="1169" pageHeight="827" math="0" shadow="0">
            <root>
                <mxCell id="0"/>
                <mxCell id="1" parent="0"/>
                <mxCell id="title" value="Monaco 2018 Racing Q1 Report - Architecture" style="text;html=1;strokeColor=none;fillColor=none;align=center;verticalAlign=middle;whiteSpace=wrap;rounded=0;fontSize=20;fontStyle=1" parent="1" vertex="1">
                    <mxGeometry x="340" y="20" width="490" height="40" as="geometry"/>
                </mxCell>
                <mxCell id="user" value="👤 User" style="shape=umlActor;verticalLabelPosition=bottom;verticalAlign=top;html=1;outlineConnect=0;fillColor=#dae8fc;strokeColor=#6c8ebf;" parent="1" vertex="1">
                    <mxGeometry x="70" y="230" width="40" height="80" as="geometry"/>
                </mxCell>
                <mxCell id="cli" value="&lt;b&gt;cli.py&lt;/b&gt;&lt;br&gt;CLI Interface&lt;br&gt;━━━━━━━━━━&lt;br&gt;• ArgumentParser&lt;br&gt;• --files&lt;br&gt;• --asc/--desc&lt;br&gt;• --driver&lt;br&gt;• main()" style="rounded=1;whiteSpace=wrap;html=1;fillColor=#60a917;strokeColor=#2D7600;align=left;verticalAlign=top;spacingLeft=10;spacingTop=5;fontColor=#ffffff;" parent="1" vertex="1">
                    <mxGeometry x="200" y="220" width="160" height="140" as="geometry"/>
                </mxCell>
                <mxCell id="arrow1" value="Commands" style="edgeStyle=orthogonalEdgeStyle;rounded=0;orthogonalLoop=1;jettySize=auto;html=1;entryX=0;entryY=0.5;entryDx=0;entryDy=0;strokeWidth=2;fillColor=#dae8fc;strokeColor=#6c8ebf;" parent="1" source="user" target="cli" edge="1">
                    <mxGeometry relative="1" as="geometry"/>
                </mxCell>
                <mxCell id="report" value="&lt;b&gt;report.py&lt;/b&gt;&lt;br&gt;RaceReport&lt;br&gt;━━━━━━━━━━&lt;br&gt;• build_report()&lt;br&gt;• print_report()&lt;br&gt;• Validation&lt;br&gt;• Sorting&lt;br&gt;• Filtering" style="rounded=1;whiteSpace=wrap;html=1;fillColor=#008a00;strokeColor=#005700;align=left;verticalAlign=top;spacingLeft=10;spacingTop=5;fontColor=#ffffff;" parent="1" vertex="1">
                    <mxGeometry x="440" y="220" width="160" height="140" as="geometry"/>
                </mxCell>
                <mxCell id="arrow2" value="calls" style="edgeStyle=orthogonalEdgeStyle;rounded=0;orthogonalLoop=1;jettySize=auto;html=1;entryX=0;entryY=0.5;entryDx=0;entryDy=0;strokeWidth=2;fillColor=#fff2cc;strokeColor=#d6b656;" parent="1" source="cli" target="report" edge="1">
                    <mxGeometry relative="1" as="geometry"/>
                </mxCell>
                <mxCell id="parser" value="&lt;b&gt;parsers.py&lt;/b&gt;&lt;br&gt;RaceDataParser&lt;br&gt;━━━━━━━━━━&lt;br&gt;• parse_files()&lt;br&gt;• _read_abbreviations()&lt;br&gt;• _read_start_stop_log()&lt;br&gt;• Error handling" style="rounded=1;whiteSpace=wrap;html=1;fillColor=#1ba1e2;strokeColor=#006EAF;align=left;verticalAlign=top;spacingLeft=10;spacingTop=5;fontColor=#ffffff;" parent="1" vertex="1">
                    <mxGeometry x="680" y="220" width="200" height="140" as="geometry"/>
                </mxCell>
                <mxCell id="arrow3" value="uses" style="edgeStyle=orthogonalEdgeStyle;rounded=0;orthogonalLoop=1;jettySize=auto;html=1;entryX=0;entryY=0.5;entryDx=0;entryDy=0;strokeWidth=2;fillColor=#e1d5e7;strokeColor=#9673a6;" parent="1" source="report" target="parser" edge="1">
                    <mxGeometry relative="1" as="geometry"/>
                </mxCell>
                <mxCell id="models" value="&lt;b&gt;models.py&lt;/b&gt;&lt;br&gt;RaceRecord&lt;br&gt;━━━━━━━━━━&lt;br&gt;• abbreviation&lt;br&gt;• driver&lt;br&gt;• team&lt;br&gt;• start: datetime&lt;br&gt;• stop: datetime&lt;br&gt;• duration @property&lt;br&gt;• is_valid @property&lt;br&gt;• errors: list" style="rounded=1;whiteSpace=wrap;html=1;fillColor=#6a00ff;strokeColor=#3700CC;align=left;verticalAlign=top;spacingLeft=10;spacingTop=5;fontColor=#ffffff;" parent="1" vertex="1">
                    <mxGeometry x="440" y="440" width="160" height="190" as="geometry"/>
                </mxCell>
                <mxCell id="arrow4" value="creates" style="edgeStyle=orthogonalEdgeStyle;rounded=0;orthogonalLoop=1;jettySize=auto;html=1;exitX=0.25;exitY=1;exitDx=0;exitDy=0;entryX=1;entryY=0.25;entryDx=0;entryDy=0;strokeWidth=2;fillColor=#f8cecc;strokeColor=#b85450;" parent="1" source="parser" target="models" edge="1">
                    <mxGeometry relative="1" as="geometry"/>
                </mxCell>
                <mxCell id="arrow5" value="uses" style="edgeStyle=orthogonalEdgeStyle;rounded=0;orthogonalLoop=1;jettySize=auto;html=1;exitX=0.5;exitY=1;exitDx=0;exitDy=0;entryX=0.5;entryY=0;entryDx=0;entryDy=0;strokeWidth=2;fillColor=#f8cecc;strokeColor=#b85450;" parent="1" source="report" target="models" edge="1">
                    <mxGeometry relative="1" as="geometry"/>
                </mxCell>
                <mxCell id="dataGroup" value="📁 Data Files" style="swimlane;fontStyle=1;childLayout=stackLayout;horizontal=1;startSize=30;fillColor=#6a00ff;strokeColor=#3700CC;rounded=1;fontColor=#ffffff;" parent="1" vertex="1">
                    <mxGeometry x="690" y="40" width="470" height="130" as="geometry"/>
                </mxCell>
                <mxCell id="abbr" value="📄 abbreviations.txt&lt;br&gt;DRR_Daniel Ricciardo_&lt;br&gt;RED BULL RACING..." style="rounded=1;whiteSpace=wrap;html=1;fillColor=#a20025;strokeColor=#6F0000;align=left;spacingLeft=5;fontColor=#ffffff;" parent="dataGroup" vertex="1">
                    <mxGeometry y="30" width="150" height="100" as="geometry"/>
                </mxCell>
                <mxCell id="start" value="📄 start.log&lt;br&gt;DRR2018-05-24_&lt;br&gt;12:14:12.054" style="rounded=1;whiteSpace=wrap;html=1;fillColor=#a20025;strokeColor=#6F0000;align=left;spacingLeft=5;fontColor=#ffffff;" parent="dataGroup" vertex="1">
                    <mxGeometry x="150" y="30" width="160" height="100" as="geometry"/>
                </mxCell>
                <mxCell id="end" value="📄 end.log&lt;br&gt;DRR2018-05-24_&lt;br&gt;12:15:24.067" style="rounded=1;whiteSpace=wrap;html=1;fillColor=#a20025;strokeColor=#6F0000;align=left;spacingLeft=5;fontColor=#ffffff;" parent="dataGroup" vertex="1">
                    <mxGeometry x="310" y="30" width="160" height="100" as="geometry"/>
                </mxCell>
                <mxCell id="arrow6" value="reads" style="edgeStyle=orthogonalEdgeStyle;rounded=0;orthogonalLoop=1;jettySize=auto;html=1;entryX=0;entryY=0.5;entryDx=0;entryDy=0;strokeWidth=2;fillColor=#ffe6cc;strokeColor=#d79b00;" parent="1" source="parser" target="dataGroup" edge="1">
                    <mxGeometry relative="1" as="geometry"/>
                </mxCell>
                <mxCell id="output" value="📊 Output Report&lt;br&gt;━━━━━━━━━━━━━&lt;br&gt;1. Daniel Ricciardo | RED BULL | 1:12.013&lt;br&gt;2. Sebastian Vettel | FERRARI | 1:12.415&lt;br&gt;...&lt;br&gt;15. ...&lt;br&gt;━━━━━━━━━━━━━━━━━━━━━━━━━━━&lt;br&gt;16. Brendon Hartley | TORO ROSSO | 1:13.179&lt;br&gt;..." style="rounded=1;whiteSpace=wrap;html=1;fillColor=#fa6800;strokeColor=#C73500;align=left;verticalAlign=top;spacingLeft=10;spacingTop=5;fontFamily=Courier New;fontColor=#000000;" parent="1" vertex="1">
                    <mxGeometry x="40" y="440" width="290" height="190" as="geometry"/>
                </mxCell>
                <mxCell id="arrow7" value="generates" style="edgeStyle=orthogonalEdgeStyle;rounded=0;orthogonalLoop=1;jettySize=auto;html=1;exitX=0.25;exitY=1;exitDx=0;exitDy=0;entryX=0.5;entryY=0;entryDx=0;entryDy=0;strokeWidth=2;fillColor=#d5e8d4;strokeColor=#82b366;" parent="1" source="report" target="output" edge="1">
                    <mxGeometry relative="1" as="geometry"/>
                </mxCell>
                <mxCell id="arrow8" value="displays" style="edgeStyle=orthogonalEdgeStyle;rounded=0;orthogonalLoop=1;jettySize=auto;html=1;exitX=0;exitY=0.5;exitDx=0;exitDy=0;entryX=0.5;entryY=1;entryDx=0;entryDy=0;strokeWidth=2;fillColor=#dae8fc;strokeColor=#6c8ebf;" parent="1" source="output" target="user" edge="1">
                    <mxGeometry relative="1" as="geometry"/>
                </mxCell>
                <mxCell id="tests" value="🧪 Tests&lt;br&gt;━━━━━━━━━━&lt;br&gt;• test_models.py&lt;br&gt;• test_parsers.py&lt;br&gt;• test_report.py&lt;br&gt;• test_cli.py" style="rounded=1;whiteSpace=wrap;html=1;fillColor=#0050ef;strokeColor=#001DBC;align=left;verticalAlign=top;spacingLeft=10;spacingTop=5;fontColor=#ffffff;" parent="1" vertex="1">
                    <mxGeometry x="680" y="440" width="200" height="120" as="geometry"/>
                </mxCell>
                <mxCell id="package" value="📦 Package: monaco-racing-alexxstep&lt;br&gt;━━━━━━━━━━━━━━━━━━━━━━━━━&lt;br&gt;CLI Command: monaco-report&lt;br&gt;Python: &gt;=3.8&lt;br&gt;License: MIT" style="rounded=1;whiteSpace=wrap;html=1;fillColor=#0050ef;strokeColor=#001DBC;align=left;verticalAlign=top;spacingLeft=10;spacingTop=5;fontColor=#ffffff;" parent="1" vertex="1">
                    <mxGeometry x="680" y="610" width="230" height="100" as="geometry"/>
                </mxCell>
                <mxCell id="legend" value="📖 Legend" style="swimlane;fontStyle=1;childLayout=stackLayout;horizontal=1;startSize=30;fillColor=#6a00ff;strokeColor=#3700CC;rounded=1;fontColor=#ffffff;" parent="1" vertex="1">
                    <mxGeometry x="40" y="910" width="990" height="110" as="geometry"/>
                </mxCell>
                <mxCell id="legend1" value="🟢 CLI Layer" style="rounded=1;whiteSpace=wrap;html=1;fillColor=#a20025;strokeColor=#6F0000;align=left;spacingLeft=5;fontColor=#ffffff;" parent="legend" vertex="1">
                    <mxGeometry y="30" width="200" height="80" as="geometry"/>
                </mxCell>
                <mxCell id="legend2" value="🟡 Business Logic" style="rounded=1;whiteSpace=wrap;html=1;fillColor=#a20025;strokeColor=#6F0000;align=left;spacingLeft=5;fontColor=#ffffff;" parent="legend" vertex="1">
                    <mxGeometry x="200" y="30" width="160" height="80" as="geometry"/>
                </mxCell>
                <mxCell id="legend3" value="🟣 Data Parser" style="rounded=1;whiteSpace=wrap;html=1;fillColor=#a20025;strokeColor=#6F0000;align=left;spacingLeft=5;fontColor=#ffffff;" parent="legend" vertex="1">
                    <mxGeometry x="360" y="30" width="160" height="80" as="geometry"/>
                </mxCell>
                <mxCell id="legend4" value="🔴 Data Models" style="rounded=1;whiteSpace=wrap;html=1;fillColor=#a20025;strokeColor=#6F0000;align=left;spacingLeft=5;fontColor=#ffffff;" parent="legend" vertex="1">
                    <mxGeometry x="520" y="30" width="160" height="80" as="geometry"/>
                </mxCell>
                <mxCell id="legend5" value="🟠 Data Files" style="rounded=1;whiteSpace=wrap;html=1;fillColor=#a20025;strokeColor=#6F0000;align=left;spacingLeft=5;fontColor=#ffffff;" parent="legend" vertex="1">
                    <mxGeometry x="680" y="30" width="160" height="80" as="geometry"/>
                </mxCell>
                <mxCell id="legend6" value="⚪ Tests &amp; Package" style="rounded=1;whiteSpace=wrap;html=1;fillColor=#a20025;strokeColor=#6F0000;align=left;spacingLeft=5;fontColor=#ffffff;" parent="legend" vertex="1">
                    <mxGeometry x="840" y="30" width="140" height="80" as="geometry"/>
                </mxCell>
                <mxCell id="dataflow" value="📊 Data Flow:&lt;br&gt;1. User → CLI (commands)&lt;br&gt;2. CLI → RaceReport&lt;br&gt;3. RaceReport → Parser&lt;br&gt;4. Parser → Data Files (read)&lt;br&gt;5. Parser → RaceRecord (create)&lt;br&gt;6. RaceReport → RaceRecord (validate)&lt;br&gt;7. RaceReport → Output (format)&lt;br&gt;8. Output → User (display)" style="rounded=1;whiteSpace=wrap;html=1;fillColor=#76608a;strokeColor=#432D57;align=left;verticalAlign=top;spacingLeft=10;spacingTop=5;fontColor=#ffffff;" parent="1" vertex="1">
                    <mxGeometry x="40" y="660" width="240" height="190" as="geometry"/>
                </mxCell>
            </root>
        </mxGraphModel>
    </diagram>
</mxfile>